<svg viewBox="0 0 122 50" xmlns="http://www.w3.org/2000/svg"><path d="m13 14.06a11 11 0 0 0 0 1.23 5.09 5.09 0 0 1 -.05.92.25.25 0 0 1 0 .09.45.45 0 0 0 .05-.3c.09-.47 0-1.12.09-1.95zm-.85-2.24h-.56a5.33 5.33 0 0 0 -1.31.1v.08a7.39 7.39 0 0 1 1.1-.05h1.11a1.75 1.75 0 0 0 -.32-.13zm.08 1.18c-.49.2-.89.37-1.33.59l.13.1c.52-.25 1-.44 1.69-.71zm-2-.27a2.25 2.25 0 0 0 -1.35.86 1.68 1.68 0 0 1 .44-.2 5.65 5.65 0 0 1 1-.5zm-.7-1.19a1.57 1.57 0 0 1 .56-.19s0-.06 0-.08a1.26 1.26 0 0 0 -.56.23zm10.81-1.67a1.4 1.4 0 0 0 -.83-.29 1.63 1.63 0 0 1 1 .5 1.28 1.28 0 0 0 -.17-.21zm-1.98-1.87a.37.37 0 0 1 -.3-.1 1.73 1.73 0 0 0 -1.06-.57.89.89 0 0 0 -.61.2 3.2 3.2 0 0 1 -.5 1.23h.06a3.16 3.16 0 0 0 .44-1.14.89.89 0 0 1 .61-.2 1.73 1.73 0 0 1 1.06.58.37.37 0 0 0 .3.1c.2 0 .4-.3.4-.61-.03.29-.21.51-.4.51zm-5.34 6a11 11 0 0 0 0 1.23 5.09 5.09 0 0 1 -.05.92.25.25 0 0 1 0 .09.45.45 0 0 0 .03-.24c.09-.47 0-1.12.09-1.95zm-.79-1c-.49.2-.89.37-1.33.59l.13.1c.52-.25 1-.44 1.69-.71zm-.06-1.14h-.56a5.33 5.33 0 0 0 -1.31.1v.04a7.39 7.39 0 0 1 1.1-.05h1.11a1.75 1.75 0 0 0 -.34-.13zm-1.94.87a2.25 2.25 0 0 0 -1.35.86 1.68 1.68 0 0 1 .44-.2 5.65 5.65 0 0 1 1-.5zm-.7-1.19a1.57 1.57 0 0 1 .56-.19s0-.06 0-.08a1.26 1.26 0 0 0 -.56.23zm10.81-1.67a1.4 1.4 0 0 0 -.83-.29 1.63 1.63 0 0 1 1 .5 1.28 1.28 0 0 0 -.17-.21zm-1.98-1.87a.37.37 0 0 1 -.3-.1 1.73 1.73 0 0 0 -1.06-.57.89.89 0 0 0 -.61.2 3.2 3.2 0 0 1 -.5 1.23h.06a3.16 3.16 0 0 0 .44-1.14.89.89 0 0 1 .61-.2 1.73 1.73 0 0 1 1.06.58.37.37 0 0 0 .3.1c.2 0 .4-.3.4-.61-.03.29-.21.51-.4.51zm-5.34 6a11 11 0 0 0 0 1.23 5.09 5.09 0 0 1 -.05.92.25.25 0 0 1 0 .09.45.45 0 0 0 .03-.24c.09-.47 0-1.12.09-1.95zm-.79-1c-.49.2-.89.37-1.33.59l.13.1c.52-.25 1-.44 1.69-.71zm-.06-1.14h-.56a5.33 5.33 0 0 0 -1.31.1v.04a7.39 7.39 0 0 1 1.1-.05h1.11a1.75 1.75 0 0 0 -.34-.13zm-1.94.87a2.25 2.25 0 0 0 -1.35.86 1.68 1.68 0 0 1 .44-.2 5.65 5.65 0 0 1 1-.5zm-.7-1.19a1.57 1.57 0 0 1 .56-.19s0-.06 0-.08a1.26 1.26 0 0 0 -.56.23zm10.81-1.67a1.4 1.4 0 0 0 -.83-.29 1.63 1.63 0 0 1 1 .5 1.28 1.28 0 0 0 -.17-.21zm-1.98-1.87a.37.37 0 0 1 -.3-.1 1.73 1.73 0 0 0 -1.06-.57.89.89 0 0 0 -.61.2 3.2 3.2 0 0 1 -.5 1.23h.06a3.16 3.16 0 0 0 .44-1.14.89.89 0 0 1 .61-.2 1.73 1.73 0 0 1 1.06.58.37.37 0 0 0 .3.1c.2 0 .4-.3.4-.61-.03.29-.21.51-.4.51zm-5.34 6a11 11 0 0 0 0 1.23 5.09 5.09 0 0 1 -.05.92.25.25 0 0 1 0 .09.45.45 0 0 0 .03-.24c.09-.47 0-1.12.09-1.95zm-2.12-.51.13.1c.52-.25 1-.44 1.69-.71h-.49c-.49.28-.89.45-1.33.67zm1.61-1.63a1.75 1.75 0 0 0 -.34-.1h-.56a5.33 5.33 0 0 0 -1.31.1v.14a7.39 7.39 0 0 1 1.1-.05zm-3.63 1.69a1.68 1.68 0 0 1 .44-.2 5.65 5.65 0 0 1 1-.5l-.07-.15a2.25 2.25 0 0 0 -1.37.85zm1.23-2.32a1.26 1.26 0 0 0 -.58.27 1.57 1.57 0 0 1 .56-.19s.01-.06.02-.08zm10.23-1.36a1.4 1.4 0 0 0 -.83-.29 1.63 1.63 0 0 1 1 .5 1.28 1.28 0 0 0 -.17-.21zm-1.98-1.87a.37.37 0 0 1 -.3-.1 1.73 1.73 0 0 0 -1.06-.57.89.89 0 0 0 -.61.2 3.2 3.2 0 0 1 -.5 1.23h.06a3.16 3.16 0 0 0 .44-1.14.89.89 0 0 1 .61-.2 1.73 1.73 0 0 1 1.06.58.37.37 0 0 0 .3.1c.2 0 .4-.3.4-.61-.03.29-.21.51-.4.51zm10.64 31c-.51-1.43-1.51-3.36-2-4.69-.6-1.84-1.11-5.92-2-8.07a6.81 6.81 0 0 0 -2-2.38 7.56 7.56 0 0 1 .91 3.37c.1 1.64.9 3.17.5 4.5-.71-1.64-1.71-2.05-1.81-5.62a8.22 8.22 0 0 0 -1.11-4 8.64 8.64 0 0 0 -1.72-1.89 2 2 0 0 1 -.4-.56 1.8 1.8 0 0 1 -.1-.72.87.87 0 0 1 .7-.91 1.46 1.46 0 0 1 .29 0h.14a1 1 0 0 1 .89 1.23 1.71 1.71 0 0 1 .11-.14c2.66-3.62.89-6.6.89-6.6h.11a2.18 2.18 0 0 1 1 .3v-.05a8.93 8.93 0 0 0 -1.19-4.17 1.64 1.64 0 0 0 -.14-.22 3.65 3.65 0 0 0 -.27-.38l-.12-.16a6.42 6.42 0 0 0 -.5-.59s0-.09 0-.23a9.42 9.42 0 0 0 -.11-2.11c-.07-.47-.31-.91-.69-.91a.45.45 0 0 0 -.2 0c-.41.1-1.52.51-1.82.61s-.81.31-.91.2-1.51-1.32-4.94-1.12c-2.32-.31-4.73-.1-5.64.51a4.77 4.77 0 0 1 -1.62-.82c-1.1-.61-1.91-1-2.31-.61a3.64 3.64 0 0 0 -.31 1.53 11.19 11.19 0 0 0 .37 2.52c-.81.71-3.23 3.16-3 4.9a1.76 1.76 0 0 1 1.72-.21 5.66 5.66 0 0 0 -1.52 4 8.19 8.19 0 0 0 .41 2.66c.3-.72.7-1 1.11-1s.8.41.8 1.12a2 2 0 0 1 -.1.71c-.69 2.62-1.9 4.46-1.42 10-1.11 2.65-.6 6.23-.1 7.86a17.76 17.76 0 0 0 5.14 7.76 39.47 39.47 0 0 0 3.73 2.76c0-.51-.5-1.94-2.42-4a15.36 15.36 0 0 1 -4.94-12c1.84 6.47 4.76 8.1 7.59 11.17l.21.25.33.39.16.2.14.19a6.11 6.11 0 0 1 .66.88 2 2 0 0 1 .22.44 20 20 0 0 1 1.21-8.17c1.11-2.55 3.32-5.31 4.33-8a10.82 10.82 0 0 0 .88-3.23c0-.22 0-.43 0-.65a11.42 11.42 0 0 1 -.61 8c-.9 2-2.52 3.27-3.42 5.51a6.73 6.73 0 0 0 -.19 3.93c0 .09.06.19.09.26a21.12 21.12 0 0 1 3.42-5.41c1.42-1.84 2.73-3.58 3-5.82a12.67 12.67 0 0 0 0-3.37 15 15 0 0 1 1.21 6.23c-.4 3.57-3 5.92-5.35 8.37a36.79 36.79 0 0 0 -4.63 4.59 8 8 0 0 0 -1.27 2.86h1.32a14.4 14.4 0 0 1 3.53-3.47 21.1 21.1 0 0 0 4.63-4.19 21.94 21.94 0 0 0 3-5.1 15.4 15.4 0 0 1 .4 3.16c-.1 2.05-.6 3.88-1.61 4.8 3.83-1.43 3.43-5.92 3.33-7.35-.21-2.24-1.52-3.88-2-6.23a12 12 0 0 1 2.72 4.09 18.89 18.89 0 0 1 1.72 3.88 9.76 9.76 0 0 1 -.31 4.49c1.22-.72 2.13-3.08 1.88-5.08zm-7.51-22.59a2.47 2.47 0 0 0 -.62-1l-.09-.1a4.65 4.65 0 0 1 -1.71 3.06c.7-1.22 1.41-3.27.8-4.9a2.38 2.38 0 0 1 .91.31 3.18 3.18 0 0 0 -1.31-2.15 2.79 2.79 0 0 1 2.42 3 4.06 4.06 0 0 1 -.35 1.72.61.61 0 0 1 -.05.06zm-5-4.39a2.17 2.17 0 0 1 .92-.2 2.52 2.52 0 0 1 1.12.13l.15.05h.02-.19a9.76 9.76 0 0 1 -1.16.07h-1zm2.17-6.12a1.45 1.45 0 0 1 1 1.32 1.24 1.24 0 0 1 -.6 1c1.71.21 2.62 1 2.82 3.88-.81-1.43-1.51-1.73-2.52-1.63a4.15 4.15 0 0 1 -3.36-1.4 3.89 3.89 0 0 0 1.81.6h.1l.84-.06h.29.32.2a1.63 1.63 0 0 1 1 .5 1.28 1.28 0 0 0 -.14-.21 2.51 2.51 0 0 0 -2.08-1.11 1.55 1.55 0 0 0 -.71.1 1.42 1.42 0 0 1 -.6.2c-.4 0-.71-.2-1.11-.2l.06-.09a3.16 3.16 0 0 0 .44-1.14.89.89 0 0 1 .61-.2 1.73 1.73 0 0 1 1.03.54.37.37 0 0 0 .3.1c.2 0 .4-.3.4-.61a2.22 2.22 0 0 0 -.64-1.2 3.91 3.91 0 0 0 -1.36-.89 4.25 4.25 0 0 1 1.9.5zm-2.51-.06a1.43 1.43 0 0 1 .19.26 1.68 1.68 0 0 1 -.7 1.84 1.29 1.29 0 0 0 .09-.49 2.14 2.14 0 0 0 -.29-1 3.16 3.16 0 0 0 -1.51-1.53 3.32 3.32 0 0 1 2.22.92zm-1 1.38a1.5 1.5 0 0 1 -.2.62 2.28 2.28 0 0 0 -.95-1.54 1 1 0 0 1 1.13.92zm-1.33 2.45c.41 0 .91.31 1.21.31s.51-.2 1-.2.81.3.81.61a.33.33 0 0 1 0 .17 1 1 0 0 1 -.29.38 5.34 5.34 0 0 0 -1 .94.76.76 0 0 0 -.14.43v.51a2.89 2.89 0 0 1 -.1.92 4.12 4.12 0 0 1 .9.2s-.2 1.84-.2 2.25c0 .1 0 .2.1.2a1.24 1.24 0 0 0 .2-.3c.09-.15.18-.31.27-.49s.14-.34.22-.51.23-.63.32-.94h.3a.79.79 0 0 0 .49-.18 1.12 1.12 0 0 0 .32-.33 3 3 0 0 0 -.34-.16l-.44-.14c-.5-.2-1-.41-1.31-.51a10.84 10.84 0 0 1 2.42.41c.2-.41.3-1 .41-1a3.15 3.15 0 0 1 .2.81 3.22 3.22 0 0 1 -.11.49 2.72 2.72 0 0 1 -1.41 1.86 7.08 7.08 0 0 0 -.8 2.25 10.68 10.68 0 0 0 -.3 2.65c0 .51-.21.61-.41.61a.88.88 0 0 1 -.3-.07h-.1v-.41a6.38 6.38 0 0 0 -.1-1.32.28.28 0 0 0 0-.09.4.4 0 0 0 -.09-.22.45.45 0 0 0 -.1.31c-.1.4-.41 1.12-.51 1.43a6.06 6.06 0 0 0 -.76-.05c-.47 0-.9 0-1.09.05h-.06c-.1-.41-.41-1.13-.51-1.54a.16.16 0 0 0 0-.09.33.33 0 0 0 -.07-.11.35.35 0 0 0 -.1.2 11.45 11.45 0 0 0 -.1 1.74c-.3 0-.6.31-.71.31s-.39-.17-.58-.45c0 0 0 0 0-.08l-.07-.11c0-.05-.07-.11-.11-.17-.71-1.33-.91-4.08-.3-5.11-1.9-.05-1.48 2.2-1.48 2.3a4.44 4.44 0 0 1 -1.31-2.86 2.21 2.21 0 0 1 .91-1.83 2.89 2.89 0 0 1 .61-2.05 2.46 2.46 0 0 1 2.19-.69l-.24.11h-.05a1.25 1.25 0 0 0 -.81 1.1h-.19a1.26 1.26 0 0 0 -.58.27l-.14.11a10.35 10.35 0 0 1 3.33.21h-1.11a5.33 5.33 0 0 0 -1.31.1v.1a3.59 3.59 0 0 0 .1.66l-.17.06a2.25 2.25 0 0 0 -1.35.86 1.68 1.68 0 0 1 .44-.2 11.13 11.13 0 0 1 3.48-.6l-.59.22c-.49.2-.89.37-1.33.59l.13.1a2.13 2.13 0 0 0 .99.31 10.84 10.84 0 0 1 .4 1c.13.42.26.83.32 1a1.17 1.17 0 0 0 .19.3.45.45 0 0 0 .09-.3c.09-.47 0-1.12.09-1.95a1.21 1.21 0 0 1 0-.19c.38 0 1-.09 1.51-.09h.1a4 4 0 0 0 -.1-1.53c-.1-.41-.91-.62-1.21-1.13-.5-.61-.5-.71-1-1 .61-.03.83-.44 1.43-.44zm-1-3.67a2 2 0 0 0 -1 1.53.8.8 0 0 1 -.3-.71c-.12-.41.19-.82 1.3-.82zm-1-1.53a1.84 1.84 0 0 0 -1.12 1.53 2.67 2.67 0 0 0 .15 1.27c0 .06 0 .11.05.16-.2-.21-1-1-1-1.74a.09.09 0 0 1 0-.05c.02-.64.63-1.07 1.91-1.17zm-5.96 2.86a.79.79 0 0 1 -.4-.72c0-.51.6-1.22 3.12-1.53a3.59 3.59 0 0 0 -1.43.86 1.19 1.19 0 0 0 -.15.18.24.24 0 0 0 -.06.09 1.87 1.87 0 0 0 -.15.34.88.88 0 0 0 0 .16.74.74 0 0 0 .8.62 1.87 1.87 0 0 0 .71-.21c.2 0 .5-.3.91-.3a1.34 1.34 0 0 1 .79.18 4 4 0 0 0 .81 1.43 1 1 0 0 0 -.3-.1c-.31 0-.41.1-.81.1a3.08 3.08 0 0 1 -1.61-.61c-.1 0-.41-.11-.51-.11a2.45 2.45 0 0 0 -2.02 1.29 2.36 2.36 0 0 1 1.11-.2h.37.3a11.69 11.69 0 0 0 2.05.34h.1a3.55 3.55 0 0 0 1.41-.4l-.05.06a2.25 2.25 0 0 1 -2.07.85c-.8 0-1.61-.1-2.42-.1a3.67 3.67 0 0 0 -3.36 1.66c.44-3.21 2.66-3.88 2.86-3.88zm-3.73 8.16a5.3 5.3 0 0 1 4.74-4.9 5.12 5.12 0 0 0 -2.62 3.78 3.34 3.34 0 0 1 1.51-1 4.16 4.16 0 0 0 -.39 1.78 3.54 3.54 0 0 0 .39 1.69c.2-.41.5-.92 1-.92 0 2.55 1.51 2.45 2.72 4a24 24 0 0 1 1.31 2.45.66.66 0 0 0 .08.13 0 0 0 0 1 0 0 1.74 1.74 0 0 0 .84.72l.24.08h.13a4.15 4.15 0 0 0 .65.13h.67a3.77 3.77 0 0 0 1.7-.49 2.57 2.57 0 0 0 .32-.22 4.12 4.12 0 0 1 -1 1.73 1.68 1.68 0 0 1 -1.1.42c-.4 0-.71-.11-1-.11-2.42.92-3.73 4.29-3.73 5.41l-.21-.17a10.37 10.37 0 0 1 -1.38-1.42 20 20 0 0 1 -2.52-3.9 1.46 1.46 0 0 0 0 .22 8.16 8.16 0 0 0 -.07 1.31c0 4.38 2.68 5 5.06 8.79l.18.3s.68-8.32 6.66-9.81l.4-.09a14.41 14.41 0 0 0 -3.42 4.47c-.09.17-.18.34-.26.53a33.83 33.83 0 0 0 -2.78 9.19c-.9-1.53-2.77-3.35-4.42-5.53a3.91 3.91 0 0 1 -.3-.41c-.1-.13-.2-.26-.28-.38l-.38-.59-.3-.49-.25-.43a12.2 12.2 0 0 1 -1.32-3.27 9.43 9.43 0 0 1 -.28-2.14 23.63 23.63 0 0 1 1.11-6.53 4.23 4.23 0 0 0 2.03 1.18c-1.51-1.23-2.72-4.6-2.62-6.44a2.35 2.35 0 0 0 -1.11.93zm16.23-7.49a.37.37 0 0 1 -.3-.1 1.73 1.73 0 0 0 -1.06-.57.89.89 0 0 0 -.61.2 3.2 3.2 0 0 1 -.5 1.23h.06a3.16 3.16 0 0 0 .44-1.14.89.89 0 0 1 .61-.2 1.73 1.73 0 0 1 1.06.58.37.37 0 0 0 .3.1c.2 0 .4-.3.4-.61-.03.29-.21.51-.4.51zm2 1.83a1.4 1.4 0 0 0 -.83-.29 1.63 1.63 0 0 1 1 .5 1.28 1.28 0 0 0 -.19-.17zm-10.83 1.67a1.57 1.57 0 0 1 .56-.19s0-.06 0-.08a1.26 1.26 0 0 0 -.56.27zm.7 1.19a2.25 2.25 0 0 0 -1.35.86 1.68 1.68 0 0 1 .44-.2 5.65 5.65 0 0 1 1-.5zm1.94-.87h-.56a5.33 5.33 0 0 0 -1.31.1v.08a7.39 7.39 0 0 1 1.1-.05h1.11a1.75 1.75 0 0 0 -.34-.13zm.06 1.18c-.49.2-.89.37-1.33.59l.13.1c.52-.25 1-.44 1.69-.71zm.79 1.1a11 11 0 0 0 0 1.23 5.09 5.09 0 0 1 -.05.92.25.25 0 0 1 0 .09.45.45 0 0 0 .03-.34c.09-.47 0-1.12.09-1.95zm5.34-6a.37.37 0 0 1 -.3-.1 1.73 1.73 0 0 0 -1.06-.67.89.89 0 0 0 -.61.2 3.2 3.2 0 0 1 -.5 1.23h.06a3.16 3.16 0 0 0 .44-1.14.89.89 0 0 1 .61-.2 1.73 1.73 0 0 1 1.06.58.37.37 0 0 0 .3.1c.2 0 .4-.3.4-.61-.03.29-.21.51-.4.51zm2 1.83a1.4 1.4 0 0 0 -.83-.29 1.63 1.63 0 0 1 1 .5 1.28 1.28 0 0 0 -.19-.27zm-10.83 1.57a1.57 1.57 0 0 1 .56-.19s0-.06 0-.08a1.26 1.26 0 0 0 -.56.27zm.7 1.19a2.25 2.25 0 0 0 -1.35.86 1.68 1.68 0 0 1 .44-.2 5.65 5.65 0 0 1 1-.5zm1.94-.87h-.56a5.33 5.33 0 0 0 -1.31.1v.08a7.39 7.39 0 0 1 1.1-.05h1.11a1.75 1.75 0 0 0 -.34-.13zm.06 1.18c-.49.2-.89.37-1.33.59l.13.1c.52-.25 1-.44 1.69-.71zm.79 1.1a11 11 0 0 0 0 1.23 5.09 5.09 0 0 1 -.05.92.25.25 0 0 1 0 .09.45.45 0 0 0 .03-.34c.09-.47 0-1.12.09-1.95zm5.34-6a.37.37 0 0 1 -.3-.1 1.73 1.73 0 0 0 -1.06-.67.89.89 0 0 0 -.61.2 3.2 3.2 0 0 1 -.5 1.23h.06a3.16 3.16 0 0 0 .44-1.14.89.89 0 0 1 .61-.2 1.73 1.73 0 0 1 1.06.58.37.37 0 0 0 .3.1c.2 0 .4-.3.4-.61-.03.29-.21.51-.4.51zm2 1.83a1.4 1.4 0 0 0 -.83-.29 1.63 1.63 0 0 1 1 .5 1.28 1.28 0 0 0 -.19-.27zm-10.83 1.57a1.57 1.57 0 0 1 .56-.19s0-.06 0-.08a1.26 1.26 0 0 0 -.56.27zm.7 1.19a2.25 2.25 0 0 0 -1.35.86 1.68 1.68 0 0 1 .44-.2 5.65 5.65 0 0 1 1-.5zm1.94-.87h-.56a5.33 5.33 0 0 0 -1.31.1v.08a7.39 7.39 0 0 1 1.1-.05h1.11a1.75 1.75 0 0 0 -.34-.13zm.06 1.18c-.49.2-.89.37-1.33.59l.13.1c.52-.25 1-.44 1.69-.71zm.79 1.1a11 11 0 0 0 0 1.23 5.09 5.09 0 0 1 -.05.92.25.25 0 0 1 0 .09.45.45 0 0 0 .03-.34c.09-.47 0-1.12.09-1.95zm17.84 18.75a13.41 13.41 0 0 0 -4.24-5.41c2 2.55 2.12 5.1 2.62 6.94s2.63 5.11 2 10.82c1.31-.71 1.41-4.08 1.21-6.12a26.7 26.7 0 0 0 -1.61-6.23zm5.35 15c0 1.36 0 1.87-.21 2.14h-.31c-.08-1.2-.8-3.56-1-5-.3-2.25-.5-4.39-.6-6.33a20.93 20.93 0 0 0 -1.92-6.54 11.34 11.34 0 0 1 3.43 4.88 17.07 17.07 0 0 1 .3 4.29c-.1 2.58.21 4.01.31 6.57zm20-13.38a1.6 1.6 0 0 1 1.42-1.32 5.36 5.36 0 0 0 -2-.72 1.73 1.73 0 0 0 -.4 1.64 5.13 5.13 0 0 0 1 .4zm1.11 1.74a2 2 0 0 1 2.12-.2 5.14 5.14 0 0 0 -.6-1.74 2.35 2.35 0 0 0 -1.82.82 3.6 3.6 0 0 1 .3 1.12zm-6.32.62a.73.73 0 0 0 .61-.41 8.86 8.86 0 0 0 .5-1 2.71 2.71 0 0 1 1.72-1.32 1.24 1.24 0 0 1 0-1.64 4.12 4.12 0 0 0 -2.73 2 6.21 6.21 0 0 0 -.6 1.54c0 .51.3.81.5.81zm7.36.1a1.58 1.58 0 0 0 -1 .41 9.14 9.14 0 0 1 -.2 1.74 1.79 1.79 0 0 1 2 .31c.1-.62.2-1.33.3-1.94a1.6 1.6 0 0 0 -1.11-.52zm-18.83 12.46a6 6 0 0 0 0 .61h-1.53q-.06-.91-.06-1.74c0-1.63.2-3.16.1-4.79-.1-2.86-.5-5.31-1.61-6.95a7.62 7.62 0 0 1 2.12 2.35 9.05 9.05 0 0 1 1 4c.19 1.41-.12 4.13-.02 6.52zm19.16-8.07a9.58 9.58 0 0 1 -4.54 4.8 19.15 19.15 0 0 1 -8.57 1.74c-.2-.41-1.21-3.17-3.22-4.29a11.74 11.74 0 0 1 2.64 6.43h-1.24a7.94 7.94 0 0 0 -1.3-4.39 21.43 21.43 0 0 1 -.08 4.39h-1.32a25.69 25.69 0 0 0 .29-3.88c0-.2-.1-4.59-1.41-6.84.6.61 1.41 1.53 1.91 2a9.83 9.83 0 0 0 1.92 1.72 8.32 8.32 0 0 1 3.43 3.57 16.39 16.39 0 0 0 2.31-.21 3.18 3.18 0 0 0 -2-2.55c.3 0 1.11.1 1.91.1h.91a4.44 4.44 0 0 1 1 2.05c.67-.25 1.67-.66 2.42-.96a2.21 2.21 0 0 0 -.61-1.84 7.14 7.14 0 0 0 1.86-.92c.6.1.7.72.7 1.12a3.91 3.91 0 0 1 -.1.62 7.33 7.33 0 0 0 1.52-1.53.4.4 0 0 0 .1-.31c0-.21-.2-.41-.41-.61s-.6-.31-.8-.21a9.07 9.07 0 0 0 .9-1.32c.77 0 1.28.2 1.78 1.32zm-49.81-17.32a4.37 4.37 0 0 0 -2-2.35 6.89 6.89 0 0 0 -.1 1.43 6.65 6.65 0 0 0 1.22 3.92 11.13 11.13 0 0 1 .88-3z" fill="#bd9b60"/><path d="m10.9 7.33-.05-.06a3 3 0 0 1 -.95-1.63.09.09 0 0 1 0 0v-.2a3.2 3.2 0 0 0 -2.74.55l-.09.01a.37.37 0 0 0 -.07.12.24.24 0 0 0 -.06.09 1.87 1.87 0 0 0 -.15.34.88.88 0 0 0 0 .16.74.74 0 0 0 .8.62 1.87 1.87 0 0 0 .71-.21c.2 0 .5-.3.91-.3a1.34 1.34 0 0 1 .79.18 4 4 0 0 0 .81 1.43 1 1 0 0 0 -.3-.1c-.31 0-.41.1-.81.1a3.08 3.08 0 0 1 -1.61-.61c-.1 0-.41-.11-.51-.11a2.45 2.45 0 0 0 -2.02 1.29 2.36 2.36 0 0 1 1.11-.2h.37.3a16.86 16.86 0 0 0 2.05.34h.1a3.1 3.1 0 0 0 1.36-.34l.15-.04a1.17 1.17 0 0 0 .51-1 2 2 0 0 1 -.61-.43zm-4 14.29a6.89 6.89 0 0 0 -.1 1.43 6.68 6.68 0 0 0 1.2 3.95 11.22 11.22 0 0 1 .88-3 4.35 4.35 0 0 0 -2.01-2.38zm11.39-13a1.42 1.42 0 0 0 -.71.11 1.42 1.42 0 0 1 -.58.27c-.38 0-.68-.18-1-.19h-.06a3.2 3.2 0 0 0 .5-1.23.89.89 0 0 1 .61-.2 1.73 1.73 0 0 1 1.11.61.37.37 0 0 0 .3.1c.19 0 .37-.26.4-.55v-.11a1.7 1.7 0 0 0 -.64-1.14 2.66 2.66 0 0 0 -2-.49.13.13 0 0 0 0 0c0 .08.1.17.19.26a1.68 1.68 0 0 1 -.7 1.84.44.44 0 0 1 -.3.1 1.85 1.85 0 0 0 .7 1 4 4 0 0 0 1.72.61h.1l.84-.06h.29.32.2a1.4 1.4 0 0 1 .83.29 2.25 2.25 0 0 1 .24.21 2.7 2.7 0 0 0 -2.39-1.4zm5.14 4.14.1.05a9.12 9.12 0 0 0 -1.32-4.21 1.64 1.64 0 0 0 -.14-.22 3.65 3.65 0 0 0 -.27-.38l-.12-.16a6.42 6.42 0 0 0 -.5-.59s0-.09 0-.23a13.55 13.55 0 0 0 0-2.11c-.1-.51-.3-1-.8-.92a5.34 5.34 0 0 1 .3 3 4.54 4.54 0 0 0 -2.52-1.33 2.76 2.76 0 0 1 .6.31c.71.4 1 .81 1 1.32a1.38 1.38 0 0 1 -.6 1c1.81.11 2.62 1 2.82 3.88v.86 1.59a4.15 4.15 0 0 1 -.4 1.84.31.31 0 0 0 -.05-.12 2.57 2.57 0 0 0 -.66-1 .34.34 0 0 1 0 .1 3 3 0 0 1 -.59 1.56 5.06 5.06 0 0 1 -1.21 1.33c-.41.31-.71.61-1 .82 1.61-3.17 2-6.64.5-8.17a2.12 2.12 0 0 0 -1.75-.44h-.15a.58.58 0 0 1 -.14.35c-.24.31-.69.61-1 .94a1 1 0 0 0 -.35.63v1.64c.31 0 .71.2.91.2 0 0-.2 1.84-.2 2.25a.35.35 0 0 0 .1.2 1.2 1.2 0 0 0 .2-.31l.37-.89c.07-.17.14-.34.22-.51l.22-.54h.3a1.06 1.06 0 0 0 .81-.51l-.27.01a3.33 3.33 0 0 1 -.59-.23c-.5-.21-1-.41-1.31-.51a15.23 15.23 0 0 1 1.85.24 2.1 2.1 0 0 1 .54.16 9.7 9.7 0 0 0 .4-1 1.22 1.22 0 0 1 .21.82.22.22 0 0 1 0 .08 2.61 2.61 0 0 1 -1.3 2.07 10.15 10.15 0 0 0 -.81 2.24 7.47 7.47 0 0 0 -.3 2.66c0 .51-.21.61-.41.61a1 1 0 0 1 -.4-.1v-.44a5.54 5.54 0 0 0 -.1-1.33.48.48 0 0 0 -.1-.31 1.1 1.1 0 0 0 -.09.29c-.2.41-.41 1.23-.51 1.43a6.86 6.86 0 0 0 -1.92-.08.3.3 0 0 1 0-.1 9.51 9.51 0 0 1 -.47-1.43.35.35 0 0 0 -.1-.21s-.07.06-.07.2c0 .4-.1 1.53-.1 1.73-.3.1-.6.31-.7.31-.25 0-.5-.21-.69-.55 0 0 0 0 0-.08s-.06-.13-.08-.19a.17.17 0 0 0 0 .07c.08 1 0 1.46.09 1.86 0 .08.06.15.08.23a0 0 0 0 1 0 0 .13.13 0 0 1 0 .06 1.49 1.49 0 0 0 .83.66l.24.08h.13a4.15 4.15 0 0 0 .65.13h.67a2.79 2.79 0 0 0 1.82-.81c0 .11-.07.21-.12.32-.59 1.56-1.34 1.82-2 1.82-.4 0-.71-.1-1-.1a5.91 5.91 0 0 0 -2.73 2.64 6.78 6.78 0 0 0 -1 2.71v.06a15.88 15.88 0 0 1 -4-5.19c-.06-.11-.12-.21-.17-.32a7.87 7.87 0 0 0 -.1 1.53c0 4.49 2.82 5 5.24 9.09 0 0 0-.07 0-.2.15-1.27 1.24-8.59 7-9.71l-.2.2a15.43 15.43 0 0 0 -3 4.38c-.09.17-.18.34-.26.53a41 41 0 0 0 -2.78 9.29c-.91-1.57-2.79-3.41-4.42-5.63a3.91 3.91 0 0 1 -.3-.41c-.1-.13-.2-.26-.28-.38l-.38-.59-.3-.49-.25-.43a12.78 12.78 0 0 1 -1.29-3.36v.09a6.88 6.88 0 0 0 -.38 2.87 2.41 2.41 0 0 0 .2.81c1.77 5.91 4.59 7.5 7.22 10.46l.21.25.33.39.16.2.14.19a3.77 3.77 0 0 1 .67 1.19c0-.09 0-.2 0-.31a19.19 19.19 0 0 1 1.23-7.73c1.21-2.55 3.32-5.31 4.33-8a9.2 9.2 0 0 0 .93-3.84c.06.22.12.43.17.65a10.93 10.93 0 0 1 -.78 7.31c-.9 2-2.42 3.16-3.42 5.51a6 6 0 0 0 -.11 4.19 1 1 0 0 1 .12-.26 23.81 23.81 0 0 1 3.31-5.15c1.31-1.84 2.72-3.58 3-5.82a12.67 12.67 0 0 0 0-3.37c-.1-.51-.2-1-.31-1.43.91.61 1.52 2.35 1.82 2.76a18.75 18.75 0 0 0 -2-9l-.3-.56a1.57 1.57 0 0 1 -.1-.72.87.87 0 0 1 .71-.91h.18.14a1 1 0 0 1 1 1.09.66.66 0 0 1 0 .14c2.72-3.54 1.13-6.52 1-6.73a2.38 2.38 0 0 1 .97.2zm-6-1.07a3.23 3.23 0 0 1 1.22.23l.15.05h-.1-.19a7 7 0 0 1 -1.26 0h-1a2.07 2.07 0 0 1 1.1-.25zm-2.82.71c-.1-.41-.91-.61-1.41-1.12a4.64 4.64 0 0 0 -1-1 3.42 3.42 0 0 0 -.91-.21h-.05a1.4 1.4 0 0 0 -1 1.12s0 0 0 .08a1.57 1.57 0 0 0 -.56.19 1.5 1.5 0 0 0 -.34.22 8.24 8.24 0 0 1 3 .1 1.75 1.75 0 0 1 .34.1h-1.28a7.39 7.39 0 0 0 -1.1.05h-.21a2 2 0 0 0 .14.67l.07.15a5.65 5.65 0 0 0 -1 .5 2.36 2.36 0 0 0 -.51.39 4.65 4.65 0 0 1 1-.39 12.56 12.56 0 0 1 2.44-.25h.49c-.71.27-1.17.46-1.69.71l-.23.11a2.17 2.17 0 0 0 1.11.41c.1.4.6 1.73.7 2a1.43 1.43 0 0 0 .21.3.39.39 0 0 0 .09-.21.25.25 0 0 0 0-.09 5.09 5.09 0 0 0 .05-.92 11 11 0 0 1 0-1.23h.09c.4 0 1-.09 1.52-.09v-.19a6.14 6.14 0 0 0 -.04-1.37z" fill="#fff"/><path d="m116 10.8a10.14 10.14 0 0 0 -3.53 2.86v-4.09l-.1.11c-2.42 2-8.17 3.37-8.17 3.37h-.1v1.22h.1a3.3 3.3 0 0 1 3 3.47v4.9c0 4.19-1.51 5-3.13 5.21l-.4 1.22h12.4l-.4-1.22c-2.12-.41-3.13-2-3.13-5.21v-3.06l-.1.1a6.88 6.88 0 0 0 -1.61 1.84 8.87 8.87 0 0 1 2.22-4 6.58 6.58 0 0 1 4.63-1.94 10.08 10.08 0 0 1 1.72.2h.1l1.79-5.78a10.33 10.33 0 0 0 -5.34.82zm-50.76 17.2c-1.82-.36-3.24-1.48-3.24-5.36v-13c-1.61 1.53-8.37 3.37-8.37 3.37v1a3.4 3.4 0 0 1 3.13 3.57v4.9c0 3.88-1.21 5-3.23 5.31l-.3 1h12.3zm-18.55-19.65c0-.31.5-.31 1.21-.31 2.82-.04 6.1 1.33 6.55 2.56l.91-.31a21.73 21.73 0 0 1 -2-6.84 64 64 0 0 1 -19.15.1 20.69 20.69 0 0 1 -2 6.84l.91.31c.7-1.33 3.83-2.55 6.55-2.55.71 0 1.21 0 1.21.3v14.19c0 3.88-1.92 5-3.93 5.31l-.31 1h14.08l-.3-1c-1.92-.2-3.83-1.43-3.93-5.21a13 13 0 0 1 -3.13 1.54 11.58 11.58 0 0 0 2.92-3.58 1.17 1.17 0 0 0 .21-.71c.2-.21.2-11.64.2-11.64zm54.85 14.19a5.72 5.72 0 0 1 -5.24 3.46c-3.23 0-4.24-3.27-4.24-3.27l11.7-4c-.91-5.1-4.74-8.78-10-7.86a9.23 9.23 0 0 0 -7.47 10.92c1 5.62 5.55 8.68 10.49 7.86a9.38 9.38 0 0 0 7.36-6.22zm-10.39-3.88c-.1-1.43.1-3.68 2.22-4.39s3.53.81 4.14 2a8.09 8.09 0 0 1 .6 1.33s-4.74 1.53-6.75 2.24a3.51 3.51 0 0 1 -.21-1.18zm-25.31-13 2.32-5.58c-3.83 0-10.58 2.45-10.58 10.11a9.38 9.38 0 0 1 8.26-4.5zm23.7-5.58c-2.93-.61-11.9 2.25-14.42 10.31h-.51a9.27 9.27 0 0 0 -9.47 9c0 3 2 8.57 9.68 8.57 1.91 0 4 2.76 4 6.23s-1.92 5.31-4 5.31-4-1.94-4-5.31a8.33 8.33 0 0 1 1.41-4.6 5.57 5.57 0 0 0 -7.86 5.11c0 4.59 3.93 8.57 10.39 8.57 5.74 0 10.38-3.47 10.38-8.78a9.42 9.42 0 0 0 -4.34-7.86c-.1 0-.2-.1-.3-.1a8.72 8.72 0 0 0 3.63-7 9 9 0 0 0 -3.97-7.53 15.49 15.49 0 0 0 -4 2.66 7.38 7.38 0 0 1 1.71 5.1 8.74 8.74 0 0 1 -.87 3.9 2.54 2.54 0 0 0 -.3.51c-.2.21-.3.41-.5.62a2.26 2.26 0 0 1 -1.51.61 2.63 2.63 0 0 1 -1.69-.72 7.61 7.61 0 0 1 -1.51-4.9c0-3.16 1.41-5.71 3.12-5.82v2.25c2.52-4.39 5.65-7.66 11.7-8.27z" fill="#ed8b00"/><path d="m39.93 8.45c-2.72 0-5.74 1.33-6.15 2.35l-.2.31-.81-.31-.1.31 1.31.4.21-.51c.5-1 3.42-2.34 6.15-2.34h.3v-.21zm7.26 0v11.44c0 .51 0 .61-.7 1.63 0 0 .1 0 .7-.51a1.75 1.75 0 0 0 .51-1.23v-10.92h.8a10.73 10.73 0 0 1 5.5 1.53 10 10 0 0 0 -5.9-1.84 3.15 3.15 0 0 0 -.91-.1zm.4 14.4v.2a5.4 5.4 0 0 0 1.32 3.88 4.32 4.32 0 0 1 -1.72-3.88zm3.94 5.41.5 1.53h-14.72l.1-.41h14.12l-.31-1.22zm2.82-24.5a19.1 19.1 0 0 0 1.91 6.63l.21.41-1.31.41-.16-.41c.21-.1 1-.31 1-.31l-.2-.41a21.59 21.59 0 0 1 -1.91-6.32zm50.41 20.52a9.53 9.53 0 0 1 -7.56 6.12 4.31 4.31 0 0 1 -1.62.21 9.05 9.05 0 0 1 -5.84-2.05 8.76 8.76 0 0 0 5.34 1.74 9.49 9.49 0 0 0 9.18-6.13zm-.61-5.52.11.41-11.6 3.88a4.45 4.45 0 0 0 1.61 1.95 5.78 5.78 0 0 1 -1.1-1.63l11.49-3.88-.1-.41a10.73 10.73 0 0 0 -3-5.92 4 4 0 0 0 -1-.82c.2.21.4.31.6.51a10.39 10.39 0 0 1 3 5.92zm-12.09.24c-.06-.75-.06-3.2 1.94-4a2.58 2.58 0 0 1 .91-.11 3.31 3.31 0 0 1 1.41.41 2.86 2.86 0 0 0 -1.81-.71 2.8 2.8 0 0 0 -.91.1c-2.12.71-2 3.16-1.92 4 0 .31.1.51.1.72.1 0 .21-.11.41-.11a.37.37 0 0 1 -.1-.3zm-28.06 8c-.71-.71-1.21-1.84-1.21-4.08v-12.92l-.41.41v12.13c0 2.76.71 4 1.62 4.49zm2.22 1.23c.2.51.5 1.53.5 1.53h-13l.11-.41h12.4l-.41-1.22zm55.78-17.63-1.92 6.12a10.11 10.11 0 0 0 -2-.51c-3.53-.31-5.95 3.06-5.95 3.06a4.57 4.57 0 0 1 1.21-1.53 6.14 6.14 0 0 1 4.32-1.74 9 9 0 0 1 1.62.2l.5.1 1.82-5.71zm-5.34 17.56.5 1.63h-13.11l.1-.41h12.51l-.41-1.22zm-3.33-16v-2.28l-.4.41v2.25l.4-.41zm1.21 14.8c-.81-.71-1.11-2-1.11-4v-3.28l-.43.32v2.55c-.1 2.25.4 3.68 1.51 4.39zm-48.8-20.75a9 9 0 0 0 -7.74 4.28 10.4 10.4 0 0 1 8.17-4h.4l2.43-5.8h-.4l-2.35 5.52zm24.5-5.31-3.24 7.76h-.31a15.84 15.84 0 0 0 -9.27 4 12.77 12.77 0 0 1 8.77-4.39h.2l3.35-7.48zm-5.75 18.48a9.47 9.47 0 0 1 -3.22 7c.1.1.3.2.4.31a9.11 9.11 0 0 0 3.23-7 9.82 9.82 0 0 0 -3.83-7.69 9.48 9.48 0 0 1 3.42 7.36zm-10.88 5.3a7.09 7.09 0 0 1 -1.42-4.59c0-2.25.71-4.19 1.82-5v-.62c-1.21.52-2.22 2.66-2.22 5.21a7.19 7.19 0 0 0 1.41 4.6zm-5.15 1.84a10.34 10.34 0 0 0 7 2.15 2 2 0 0 1 1.21.4 2.28 2.28 0 0 0 -1.67-.71 10.53 10.53 0 0 1 -6.56-1.84zm13.54.41a10 10 0 0 1 3.73 7.55c0 5.31-4.53 9.19-10.78 9.19a12 12 0 0 1 -7.26-2.14 11.92 11.92 0 0 0 7.63 2.47c6.25 0 10.79-3.88 10.79-9.19a9.93 9.93 0 0 0 -4.11-7.88zm-9.1 3.47a7.66 7.66 0 0 0 -1.11 4.08 5.43 5.43 0 0 0 1.41 4.09c-1.11-.72-1.81-2.35-1.81-4.39a7.56 7.56 0 0 1 1.11-4z" fill="#bbbcbc"/></svg>