<svg xmlns="http://www.w3.org/2000/svg" viewBox="0 0 261.02 63.93"><defs><style>.a{fill:#1f508f;}.b{fill:#fff;}</style></defs><title>Hoegaarden Brewery logo</title><path class="a" d="M406.87,522.19s0-5.32,0-8.82h3.92c0,4.13,0,10.75,0,10.75,0,.3.05,1.29.07,1.58-2.86-.13-4-1.8-4-3.52m4-28.78s0,4.3,0,7.44h-3.94c0-3,0-9.5,0-10.93C409.05,490,410.84,491.52,410.84,493.42ZM638.35,521s0-12.42,0-16.28c0-3-5.33-8.41-11-8.41-1.78,0-3.8,1-5.54,2.2a7.4,7.4,0,0,0-5-2.2c-2.24,0-4.1,1.14-6.67,3.48-2.24-2.12-5.09-3.61-7.74-3.61a9.38,9.38,0,0,0-4.83,1.39A68.22,68.22,0,0,0,589.9,503c0-7.68,0-14.81,0-14.81a8,8,0,0,0-8.06-8.19c-2.87,0-5.12,1.32-7.37,2.85-1.39,1-3.65,2.85-3.65,2.85.87.49,4.19,1.42,4.19,4.57v5.92a9.26,9.26,0,0,0-5.7,1.5,28.88,28.88,0,0,0-2.38,1.87c-1.85-1.85-4.45-3.48-6.87-3.48a6.31,6.31,0,0,0-4.4,2.08c-1.63-1.56-2.73-2-4.34-2-3.16,0-5.88,2.42-7.52,4.38a14.29,14.29,0,0,0-10.26-4.34c-3.91,0-9.68,4-11.39,5.44l-.87.71a13.87,13.87,0,0,0-11.67-6.15c-3.91,0-9.67,4-11.38,5.44l-.77.58a17.72,17.72,0,0,0-12.76-6.11c-4.23,0-10.63,5.94-10.7,6s-.57.61-.73.74c-2.22-4.19-6.36-6.72-10-6.72a9.59,9.59,0,0,0-4.91,1.39A72.88,72.88,0,0,0,450.8,503a8.81,8.81,0,0,0-.83.89c-2.28-3.67-7.78-7.55-12.39-7.55-2.89,0-5.73,1.86-7.88,3.5a18.57,18.57,0,0,0-2.94,2.65l-.06-11.64c0-7.15-4.74-10.45-9.44-10.45-4.09,0-8.32,3.47-11,6.43-1.6-3.8-4.91-6.44-9-6.44-3.12,0-6.71,2.35-9.85,5.57-.93,1-2.56,3-2.56,3,3.39.76,6.15,2.47,6.15,4.52v9.83l-9.55,10H391c0,4.11,0,10.9,0,10.9,0,6.7,4.56,10.43,9.08,10.43,3.23,0,6.47-2.13,8.54-3.91,0,0,1.4-1.14,2.77-2.38a9,9,0,0,0,8.48,6.3c3.08,0,6-1.91,7.92-3.76A15.06,15.06,0,0,0,438,534.6c3.17,0,9.91-3.84,11.75-7.67a14.84,14.84,0,0,0,12.62,7.71c3.91,0,8.82-3.29,11-6.18h.1a7.93,7.93,0,0,0,5,3.76c-2.2.43-4,1.69-6.19,3.69-.92.91-4.39,4.94-4.39,4.94,6-.55,9.43,3.11,14.25,3.11a14.5,14.5,0,0,0,6.06-1.9c3.45-2,8.61-5.22,10.33-10.95a11.3,11.3,0,0,0,8,3.26c1.47,0,2.46-.65,4.48-1.89l.22-.15a8.23,8.23,0,0,0,5.12,2,10.5,10.5,0,0,0,6.61-2.7,11.75,11.75,0,0,0,7.48,2.7c1.46,0,2.46-.65,4.47-1.89l.24-.15a8.21,8.21,0,0,0,5.11,2,10.76,10.76,0,0,0,6.81-2.89,7.78,7.78,0,0,0,6.1,2.9c2.94,0,6.44-2,8.87-5l.84-1.06A15.46,15.46,0,0,0,575,534.51a5.58,5.58,0,0,0,3.75-1.82,8.65,8.65,0,0,0,4.91,1.82c3.66,0,6.52-2.77,7.72-4.19a14.94,14.94,0,0,0,10,4.33c3.18,0,6.81-2.12,9.37-4.35a28.62,28.62,0,0,0,1.27,4.89,33.59,33.59,0,0,0,12.87-5.38,8.26,8.26,0,0,0,7.3,4.72c3,0,6-2,8.15-4.66a17.57,17.57,0,0,0,2.13-3.3c-2.72-1.31-4.17-2.36-4.17-5.57Z" transform="translate(-381.49 -480.03)"/><path class="b" d="M616.94,500.29c1.62,0,3.2,1.2,4.3,3.37.72-.62,3.89-3.28,6.07-3.28,2.63,0,6.34,2.54,6.94,5,0,1.61,0,15.15,0,17.6s1.65,3.64,2.82,4.42c-.68,1.16-2.9,3.06-4.84,3.06-2.5,0-4.5-2.42-4.5-5.12s0-13.81,0-16.16c0-1.88-3.36-4-6.09-3.67-.24,0-.48.39-.48,1.3v16.67a18.09,18.09,0,0,0,.46,3.92c-1.15,1.22-5.76,3.15-6.39,3.15a17.11,17.11,0,0,1-.65-5c0-1.92,0-17.52,0-17.52a3.68,3.68,0,0,0-2.79-3.65c1.14-1.68,3.41-4.11,5.15-4.11" transform="translate(-381.49 -480.03)"/><path class="b" d="M561.44,508.47c-1.72-2.06-4.09-3.29-5.14-3.3-.41,0-.54.75-.54,2.37v15.09a4.33,4.33,0,0,0,2.86,4.49,7,7,0,0,1-5,3.19,5,5,0,0,1-4.65-5.09v-17.4a3.75,3.75,0,0,0-2.7-3.53c1.74-2.47,3.9-4,5.28-4,1.85,0,3.79,2.23,4.12,3.31,1.51-1.83,3.46-3.41,4.63-3.41s3.48,1.48,5.07,3.59Z" transform="translate(-381.49 -480.03)"/><path class="b" d="M572.74,503.74a12.25,12.25,0,0,0-.47,3.11c-.1,1.6-.13,10.13-.13,12.81,0,4.34,3.44,5.83,6.92,6.37l0-19.78c-.92-.62-4.48-2.6-6.3-2.51m8.87-20.12a4.57,4.57,0,0,1,4.24,4.72c0,2.78,0,34.35,0,34.35,0,2.79,1.08,3.85,2.8,4.61-1.3,1.68-3.26,3.17-5,3.17-1.51,0-3.23-1.17-4.49-3-1.55.75-3.72,3-4.17,3-4.39-.1-9.65-3.3-9.65-8.29,0-1.83,0-10.73,0-12.13,0-3.51,4.76-7.57,6.59-8.87s4.78-1,7.07.31c0-3.35,0-10.56,0-12.39a3.34,3.34,0,0,0-2.28-3.11c1.71-1.27,3.67-2.36,4.85-2.36Z" transform="translate(-381.49 -480.03)"/><path class="b" d="M506.23,516.37a9.4,9.4,0,0,0-.68,4.22c.08,3.48,1.91,5.59,4.17,5.59a4.35,4.35,0,0,0,2.06-.56l0-13.18c-1.58.88-4.53,2.4-5.54,3.92m5.55-8.09c0-2-3-3.69-5.18-3.69-1.4,0-3.68,1-5.82,2.59v-2.35c2.48-2,6.89-4.51,8.82-4.51,4.37,0,8.26,2.76,8.91,5.92,0,3.76,0,16.37,0,16.37a4.6,4.6,0,0,0,3,4.58,7,7,0,0,1-5.16,3.13c-1.63,0-3.53-1.59-4.26-3.18-2.49,1.31-5,3.18-5.57,3.18-2.56,0-5.58-.84-6.83-4.22-.75-2.14-.7-6.72.21-8.77s6.82-4.6,11.87-7.67Z" transform="translate(-381.49 -480.03)"/><path class="b" d="M530.05,516.37a9.44,9.44,0,0,0-.66,4.22c.09,3.48,1.85,5.59,4.14,5.59a4.36,4.36,0,0,0,2.07-.56V512.45c-1.61.88-4.57,2.4-5.55,3.92m5.55-8.09c0-2-2.93-3.69-5.18-3.69-1.4,0-3.66,1-5.81,2.59v-2.35c2.48-2,6.87-4.51,8.81-4.51,4.37,0,8.25,2.76,8.89,5.92,0,3.76,0,16.37,0,16.37a4.63,4.63,0,0,0,3,4.58,7.06,7.06,0,0,1-5.16,3.13c-1.61,0-3.54-1.59-4.24-3.18-2.5,1.31-5,3.18-5.58,3.18-2.56,0-5.57-.84-6.81-4.22-.81-2.14-.77-6.72.22-8.77s6.78-4.6,11.85-7.67Z" transform="translate(-381.49 -480.03)"/><path class="b" d="M481.38,507.42c0,1.2,0,10.59,0,12.51,0,4.38,4.36,5.8,7,5.65-.12-1.44-.38-7.9-.38-11,0-1.27-.09-5-.09-6.15a5.2,5.2,0,0,0-1-1c-1-.91-4-2.52-5.54-2.52,0,.85,0,1.39,0,2.56m3.3-7.18c4.4,0,8.8,3,10,4.93-.29,9.28.44,16.39.44,20.35,0,7.26-3.52,9.87-9,13.07a10.34,10.34,0,0,1-3.84,1.42c-2.76,0-4.65-1.76-7.25-1.63,2.19-2.08,3.68-3.56,6.47-3.56,1.27,0,2.95,1,4.16,1s3.06-1.82,3.06-6.81c0-1-.08-1.91-.08-1.91-2.5,1.09-4.57,2.5-5.27,2.5-4.05,0-8.62-2.82-8.62-9.51,0-4.92.15-10.79.15-10.79a4.7,4.7,0,0,1,1.84-4.2C477.83,504,482.76,500.23,484.68,500.23Z" transform="translate(-381.49 -480.03)"/><path class="b" d="M433.87,509.85c0,1.85,0,5.9,0,8.94a6.88,6.88,0,0,0,6.21,7.07c.56,0,.53-2.57.53-3.55,0-1.62,0-9.89,0-12.72,0-1.45-4.95-4.68-6.47-4.68a47.29,47.29,0,0,0-.28,4.94m3.71-9.41c3.38,0,8.25,3.68,9.36,6.35.55,1.26.15,13.16.15,15.41,0,3.62-7,8.11-8.94,8.11a12,12,0,0,1-7.62-2.85c-2.52-2.21-3.21-4.68-3.22-8.54s.1-8,.1-9.72c0-1.94,2.94-4.77,4.65-6C432.9,502.55,435.62,500.44,437.58,500.44Z" transform="translate(-381.49 -480.03)"/><path class="b" d="M458.58,508.94c0,1.28,0,5.3,0,8.07a68.67,68.67,0,0,0,6.62-4.54,12.67,12.67,0,0,0-2.11-5.74c-1.53-2-3-2.35-4.12-2a17.94,17.94,0,0,0-.39,4.17m0,11c0,3.4,3.91,6.37,6.89,6.26,1.92-.07,4.79-2.33,5.77-3.34v2.43c-1.21,1.73-5.68,5.28-8.86,5.28A10.82,10.82,0,0,1,452,519.27c0-3.67,0-7.77,0-9.48a4.69,4.69,0,0,1,1.49-3.75,63.08,63.08,0,0,1,7-5,5,5,0,0,1,2.8-.85c4.19,0,8.06,6.33,8.06,10.58,0,1.24-8,6.3-12.78,8.95Z" transform="translate(-381.49 -480.03)"/><path class="b" d="M597.55,508.94c0,1.28,0,5.3,0,8.07a67.66,67.66,0,0,0,6.58-4.54,12.14,12.14,0,0,0-2.13-5.74c-1.47-2-3-2.35-4.06-2a18.2,18.2,0,0,0-.38,4.17m0,11c0,3.4,3.84,6.37,6.83,6.26,1.94-.07,4.8-2.33,5.74-3.34v2.43c-1.15,1.73-5.66,5.28-8.83,5.28a10.86,10.86,0,0,1-10.37-11.3c0-3.67,0-7.77,0-9.48a4.79,4.79,0,0,1,1.54-3.75,65.38,65.38,0,0,1,6.9-5,5.26,5.26,0,0,1,2.81-.85c4.24,0,8.07,6.33,8.07,10.58,0,1.24-8.06,6.3-12.72,8.95Z" transform="translate(-381.49 -480.03)"/><path class="b" d="M422.17,522.67a5.84,5.84,0,0,0,3.3,5.18c-1.47,1.42-3.89,2.67-5.46,2.67-2.07,0-4.77-2-4.77-5.9V509.14H402.39s0,11.28,0,13.52a5.48,5.48,0,0,0,3.31,5.18c-1.65,1.5-3.72,2.67-5.35,2.67-2.1,0-4.88-2-4.89-5.92V509.13h-4l4-4.26s0-9.66,0-12.14-2.06-4.64-4-4.64c1-1.19,4.08-3.54,5.58-3.54,3.14,0,5.37,3,5.37,6.18v14.18h12.85s0-9.74,0-12.22-2.07-4.63-4-4.63c1.41-1.37,4.13-3.53,5.76-3.53,2.59,0,5.19,2.19,5.2,6.54,0,0,0,29.34,0,31.59" transform="translate(-381.49 -480.03)"/></svg>