<?xml version="1.0" encoding="UTF-8"?><svg id="Layer_1" xmlns="http://www.w3.org/2000/svg" viewBox="0 0 502.52 164.48"><defs><style>.cls-1{fill:#fff;}.cls-2{fill:#ec1c24;}</style></defs><path id="Registered" class="cls-2" d="M490.61,105.11c0,1.77-1.31,3.15-3.02,3.15s-3.04-1.39-3.04-3.15,1.35-3.11,3.04-3.11,3.02,1.39,3.02,3.11ZM485.3,105.11c0,1.39.97,2.49,2.3,2.49s2.25-1.1,2.25-2.47-.95-2.51-2.27-2.51-2.29,1.12-2.29,2.49ZM487.12,106.74h-.68v-3.11c.27-.06.65-.09,1.13-.09.56,0,.81.09,1.03.23.16.13.29.38.29.68,0,.34-.25.61-.61.72v.04c.29.11.45.34.54.76.09.47.14.66.22.78h-.74c-.09-.11-.14-.4-.23-.76-.05-.34-.23-.49-.61-.49h-.32v1.25ZM487.13,104.98h.32c.38,0,.68-.13.68-.46,0-.28-.2-.47-.63-.47-.18,0-.31.02-.38.04v.89Z"/><path id="Bow_Tie" class="cls-2" d="M70.87,62.04c-4.91,5.75-9.19,10.65-12.96,14.9l-1.71,2.91c4.94-5.76,9.89-11.76,14.36-17.28l.31-.53ZM86.53,35.13l17.78-30.53s81.59,33.8,116.46,48.25l2.51-3.44C189.18,35.41,103.01,0,103.01,0l-20.6,35.13h4.12ZM239.83,54.38c-1.22,1.6-2.45,3.22-3.69,4.85.07.03.12.05.12.05.6-.12,256.81-53.09,256.81-53.09l2.35-.47-34.58,59.83c1.76-.7,3.44-1.1,5.02-1.1.09,0,.18,0,.26,0L502.52.98s-233.31,47.45-262.69,53.4ZM436.07,108.43l-27.97,48.4-.11.2s0,0,0,0l-1.18,2.05h0s-185.39-47.25-188.2-47.95c-.01,0-.03,0-.04,0-.02,0-.05.01-.1.02-4.82,1.1-203.18,46.53-203.29,46.56h0s0,0,0,0h0,0s28.1-48.27,28.1-48.27c-2.83,2.34-5.39,4.16-7.59,5.41l-28.48,48.59s208.09-46.98,210.88-47.55c2.78.58,190.73,48.59,190.73,48.59l32.35-56.45-5.1.41Z"/><path id="Red" class="cls-2" d="M52.25,60.17c-6.93,2.76-16.06,4.4-23.85,4.3h-.01c-6.54,0-11.97-1.08-15.72-3.14-3.1-1.7-4.81-3.96-4.81-6.37,0-2.95,2.53-5.93,6.93-8.18,3.81-1.95,10.87-4.24,22.62-4.25,7.32,0,16.05,1.28,26.66,3.92-2,2.32-5.72,6.64-8.5,9.87l-3.32,3.85ZM373.42,58.76c4.55,0,8.22-4,8.22-7.31s-2.37-5.46-5.77-5.46c-4.16,0-8.39,3.69-8.39,7.31,0,3.16,2.5,5.46,5.94,5.46ZM89.16,54.64c2.98,1.49,3.7,1.9,4.49,2.54.52.42,1.39,1.06,2.08,1.45,2.41,1.39,4.03.75,4.76-.31.38-.57.41-1.5.41-1.77,0-1.04-.51-1.91-1.64-2.8-1.6-1.27-3.68-2.55-5.92-3.65,6.6-6.99,12.57-7.76,14.88-7.76,5.37,0,6.5,3.93,6.5,7.23,0,4.32-3.58,10.77-13.68,14.73-4.83,1.9-8.07,1.69-10.6,1.23-2.11-.69-4.15-1.04-6.05-1.04-1.57,0-2.97.32-4.1.93,3.13-3.93,6.19-7.72,8.86-10.78ZM60.29,90.85c3.3-2.6,7.37-4.07,11.78-4.24,1.24-.05,2.22-.83,2.42-1.93.2-1.03-.32-2.4-1.93-3.11-1.09-.48-2.31-.72-3.67-.72-.29,0-.59.01-.9.03,1.73-2.13,3.88-4.83,6.12-7.66l2.5-3.16c.32-.4.64-.81.96-1.21-.04.21-.06.42-.07.64-.02.98.35,1.92,1.05,2.64.6.61,1.71,1.34,3.61,1.34.91,0,1.6-.2,2.32-.41,1.14-.33,2.48-.65,5.17-.65,7.58,0,9.6,4.86,9.6,7.74,0,5.38-4.36,12.18-11.39,17.75-7.57,6-16.63,9.45-24.87,9.45s-8.43-4.77-8.43-6.23c0-3.67,2.08-7.41,5.71-10.27ZM43.41,89.64c6.66-7.3,15.78-17.29,29.3-33.24,1.34-.94,4.66-3.62,6.72-5.65.86.29,1.73.63,2.67,1.01-12.25,15.4-36.64,45.95-48.62,54.35-2.7,1.9-4.33,2.29-4.69,2.2-.03-.04-.07-.13-.07-.3,0-.49.32-1.71,2.49-4.46,3.24-4.1,7-8.21,12.2-13.91ZM191.32,92.78c-4.84,4.12-9.49,6.68-12.13,6.68-.52,0-.7-.15-.74-.19-.1-.11-.21-.42-.19-.93.15-2.94,4.37-10.56,10.17-16.81,5.16-5.45,10.43-8.57,14.47-8.57.85,0,1.6.25,2,.67.21.22.21.39.21.45-.19,3.59-5.4,11.57-13.79,18.71ZM493.77,69.4c-.73-1.67-2.73-2.7-5.23-2.7-6.86,0-10.45,4.1-13.98,10.72-.74.51-1.52,1.08-2.39,1.74.9-2.04,1.34-3.86,1.34-5.5,0-4.1-3.14-6.97-7.63-6.97-6.44,0-15.89,8.38-25.04,16.49-3.73,3.31-7.26,6.44-10.48,8.92-7.18,5.53-12.13,7.89-16.56,7.89-1.37,0-2.25-.29-2.69-.87-.29-.39-.43-.94-.43-1.69s.17-1.8.5-3.03c8.73-1.76,16.68-4.77,22.44-8.48,5.74-3.7,9.03-7.98,9.03-11.74,0-4.34-4.07-7.38-9.89-7.38-7.88,0-19,5.4-29.76,14.48-.65.58-5.87,5.24-9.85,8.57.21-1.68.25-3.2.25-4.1,0-1.83-.17-3.5-.33-5.13-.19-1.93-.39-3.92-.39-6.52q0-1.32,1.08-1.64c.6-.12,5.84-1.3,5.84-5.56,0-2.6-2.03-4.34-5.05-4.34s-5.63,1.88-7.84,5.58c-6.73,5.51-12.06,10.38-16.34,14.29l-4.76,4.3c-5.02,4.46-12.11,10.29-17.39,12.7-1.27.58-2.39.75-2.82.73.04-.15.12-.38.29-.7,1.4-2.64,21.85-26.84,24.71-30.2l1.94-2.28-16.37.92-.31.24c-6.2,4.76-10.79,8.95-15.22,13l-4.65,4.2-.65.58c-5.93,5.27-15.85,14.09-23.79,14.09-1.37,0-2.29-.33-2.75-.97-.29-.41-.43-.98-.43-1.71,0-.79.18-1.77.53-2.91,20.47-4.11,31.5-13.47,31.5-20.24,0-5.82-6.47-7.36-9.89-7.36-7.97,0-18.81,5.27-29.75,14.46l-3.17,2.74c-1.57,1.38-2.92,2.57-4.13,3.43-2.34,1.61-4.28,2.5-5.75,2.99,6.85-7.2,11.18-14.11,11.18-17.97,0-2.59-1.39-4.62-3.71-5.43-2.73-.95-6.05.04-7.89,2.37-1.65,2.07-2.18,4.36-2.81,7.03-.45,1.94-.97,4.14-2.03,6.61-4.48,10.38-15.84,16.23-22.1,16.91-1.63.18-2.26-.09-2.34-.17-.03-.08-.01-.44.39-1.1,1.5-2.5,5.8-7.56,11.25-13.96,3.88-4.56,8.28-9.73,12.83-15.33l1.81-2.23-15.83.77-.36.46c-13.55,17.09-27.1,29.41-34.53,31.4-.74.2-1.19.25-1.44.27.24-.76,1.53-2.41,2.08-3.13.47-.6,1.02-1.29,1.62-2.04.15-.18.29-.36.45-.55.16-.2.33-.41.5-.62.2-.24.4-.49.6-.74.12-.15.24-.3.36-.45.27-.33.55-.67.83-1.02,0-.01.02-.02.03-.03,4.83-5.88,11.36-13.61,15.21-18.17l5.18-6.15-16.07.8-.32.25c-.11.09-.26.21-.42.34-.03.02-.07.05-.1.08-.13.11-.28.23-.44.36-.06.05-.13.1-.19.16-.15.12-.3.25-.46.39-.08.07-.17.14-.26.22-.17.15-.36.3-.55.46-.12.11-.25.21-.38.32-.22.19-.45.38-.69.59-.18.15-.36.31-.55.47-.13.11-.26.22-.39.33-.21.18-.43.37-.65.56-.1.09-.2.17-.3.26-.24.21-.49.42-.74.63-.08.07-.16.14-.25.21-.81.7-1.67,1.43-2.55,2.2-.17.15-.34.3-.52.45-.2.18-.41.35-.62.53-2.71,2.34-5.57,4.82-8.06,6.98-.57.42-1.06.86-1.42,1.17l-5.62,4.72s-.09.07-.13.11c-.44.37-.88.73-1.31,1.08-.08.06-.15.12-.23.19-.41.33-.81.66-1.2.97-.06.04-.11.09-.16.13-.43.34-.85.68-1.26,1,0,0-.02.01-.03.02-.44.35-.87.68-1.28,1l-.38.3c-3.39,2.6-5.37,3.85-6.51,4.44-.32.17-.58.27-.77.34.02-.1.06-.21.1-.35.75-2.33,12.54-17.77,23.94-32.7l.08-.1c5.58-7.31,11.35-14.87,16.41-21.64l1.61-2.15-15.26.56-20.05,27.46c-1.51-2.37-4.45-3.66-8.43-3.66-7.21,0-18.67,5.38-29.2,13.71-.89.7-2.54,2.09-4.96,4.12-6.14,5.15-15.42,12.94-18.9,14.98-.39.23-.69.34-.89.39.04-.14.11-.33.25-.57.58-1.04,1.7-2.39,3.17-4.15l23.4-28.15-15.88.77-.36.46c-13.43,16.95-26.93,29.26-34.38,31.36-.78.22-1.26.28-1.54.3.04-.12.1-.28.19-.49.95-2.09,15.78-19.57,21.37-26.15l5.27-6.23-16.42.75-.36.37c-6.56,6.83-15.61,14.35-21.36,18.95.18-.95.27-1.9.27-2.84,0-1.98-.38-3.91-1.12-5.74-1.21-2.97-3.26-5.44-5.99-7.22,6.57-1.51,11.95-4.32,15.65-8.2,3.56-3.73,5.61-8.54,5.61-13.19,0-7.06-5.79-14.56-16.54-14.56-6.09,0-13.65,1.42-23.64,11.89-1.03-.43-2.04-.82-3.06-1.18,1.91-3.13,2.3-5.49,2.42-7.23l.09-1.37h-13.46l-3.68,4.09c-11.89-3.4-23.03-5.12-33.11-5.12-10.6,0-19.62,2.08-26.08,6.01C3.35,45.92,0,50.82,0,55.84c-.01,7.79,8.23,15.67,26.67,15.72,5.94.02,12.25-.8,18.15-2.3-1.7,1.98-3.6,4.14-5.46,6.24-7.94,9.01-16.95,19.21-19.4,25.34-.84,2.09-1.26,4.07-1.26,5.89,0,2.64.91,4.85,2.62,6.38,1.5,1.34,3.48,2.01,5.71,2.01,2.18,0,4.6-.65,7.01-1.94,3.43-1.83,7.88-5.28,12.93-10.02.35,2.2,1.36,4.32,2.92,6.08,2.37,2.68,7.17,5.87,16.62,5.87,19.67,0,32.78-10.36,47.81-22.47-.93,2.21-.93,3.57-.93,4.41,0,4.53,3.03,9.1,9.79,9.1,3.97,0,9.49-2.68,16.01-7.77.17,2.55,1.35,4.8,3.3,6.24,2.99,2.21,7.01,2.05,11.03-.45,2.72-1.69,9.99-7.52,14.17-10.92-.03.39-.04.77-.04,1.15,0,3.15.86,6.02,2.42,8.07,1.83,2.41,4.55,3.68,7.87,3.68,4.46,0,9.71-2.28,15.27-6.62.15,1.64.7,3.05,1.6,4.13,1.38,1.65,3.47,2.48,6.23,2.48,5.63,0,9.93-3.4,17.05-9.04.01,0,.86-.45,1.73-1.15h0l.21-.17c.82-.66,1.87-1.51,3-2.44-.03.08-.05.16-.08.25-.1.28-.2.55-.27.83,0,.03-.02.05-.03.08l-.27.95h.05c-.12.61-.18,1.21-.18,1.8,0,5.44,3.93,9.09,9.79,9.09,4.06,0,9.71-2.79,16.42-8.09.24,1.89.98,3.61,2.15,4.96,1.7,1.97,4.21,3.01,7.26,3.01,6.25,0,14.02-3.15,22.47-9.1,4.24.43,10.88-.79,16.41-4.43.06,3.31,1.21,6.56,3.2,8.95,1.77,2.14,5.05,4.7,10.62,4.7,6.54,0,12.92-2.87,22.02-9.91,1.23-.98,2.59-2.09,4.07-3.33-.61,1.5-.91,2.87-.91,4.14,0,5.44,3.88,9.09,9.64,9.09,4.56,0,9.38-2.87,16.37-8.18,0,.07,0,.13,0,.2,0,3.68,2.99,7.98,11.4,7.98,9.17,0,16.03-5.02,26.04-13.28.12,3.22,1.25,6.25,3.23,8.61,1.79,2.13,5.08,4.67,10.59,4.67,8.23,0,15.76-5.05,21.4-9.44,2.45-1.91,5.69-4.79,9.12-7.85l.12-.11c6.92-6.16,16.27-14.5,20.52-15.65-2.15,2.78-8.5,9.96-14.65,16.92l-.18.21c-4.68,5.3-9.11,10.31-11.73,13.42l-1.99,2.35,16.44-1.31.33-.32c5.19-5.02,11.09-10.64,16.31-15.03-.02.21-.03.41-.03.61,0,1.01.23,1.95.69,2.79,1.2,2.2,3.82,3.42,7.36,3.42,5.02,0,11.7-4.19,13.41-6.93.89-1.43.77-2.92-.31-3.91-1.09-.99-2.83-1.1-3.97-.23l-1.15.9c-2.28,1.8-5.11,4.04-8.18,4.04-1.1,0-1.1-.41-1.1-.73,0-2.88,3.4-6.59,6.67-8.51,7.38-4.18,9.26-5.55,10.49-6.87,1.94-2.1,1.59-3.86,1.21-4.72ZM432.84,72.51s.09,0,.12.01c-.4,2.89-7.3,10.5-18.18,14.05,6.16-8.64,15.11-14.06,18.07-14.06ZM329.31,72.69c.66-.18,1.05-.17,1.18-.18,0,.12-.05.44-.3.98-1.7,3.71-8.26,9.95-17.86,13.08,5.59-7.85,13.26-12.88,16.98-13.87ZM378.17,95.46c-2.22,2.28-4.29,3.59-5.66,4.05.91-1.43,1.21-2.24,1.21-3.21,0-2.26-1.91-4.08-4.47-4.37,1.81-1.63,3.82-3.48,5.65-5.18,3.81-3.52,8.07-7.45,11.46-10.25-.57,10.04-5.86,16.54-8.2,18.95Z"/><path id="White" class="cls-1" d="M78.98,49.37l-.36-1.33c3.24.74,6.22,2.33,7.74,2.85l-2.18.33-5.2-1.85ZM122.16,100.95c-.42-.35-.46-.94.04-2.06,1.25-2.77,21.87-26.97,24.85-30.54l-7.22,3.14s-6.75,7.65-11.07,12.72c-1.51,1.78-12.99,16.17-5.8,17.87l-.8-1.12ZM142.65,103.12l2.12.35c5.42,2.94,12.46-5.38,25.57-15.76l-.91,2.6c-2.83,2.32-13.32,10.87-16.54,12.86-4.32,2.68-8.03,2.08-10.24-.05ZM148.29,102.08c-7.01-1.32,3.07-14.15,6.25-17.87,4.34-5.06,10.72-12.87,10.72-12.87l7.17-3-21.46,26.02c-1.47,1.76-2.66,3.2-3.3,4.35-.62,1.11-.58,1.96-.07,2.33l.7,1.04ZM194.47,96.92c-5.96,5.05-11.8,8.04-16.48,8.04-2.77,0-4.82-.97-6.27-2.49l2.16.53c1.58,1.22,7.99,3.49,22.22-9.27l-1.64,3.19ZM178.12,100.62l.31,1.16c-7.55-3.02-1.49-14.45,2.62-18.99,16.19-17.89,24.52-10.99,24.06-11.44l.83,1.56-.06-.07c-.64-.68-1.71-1.07-2.93-1.07-4.39,0-10,3.27-15.4,8.98-6.08,6.55-10.35,14.4-10.52,17.62-.04.82.15,1.47.54,1.88.15.16.33.28.55.38ZM200.69,98.83c-.17-1.52.07-3.59,2.65-7.4,8.98-13.28,29.74-40.56,33.05-45.04l7.17-2.8c-16.06,21.49-39.42,51.24-40.61,54.95-.26.81-.34,1.86.32,1.96l.45.59c-1.58.36-2.89-1.06-3.03-2.27ZM140.7,95.62c-6.56,5.5-12,8.64-16.1,9.24-.1.01-.2.03-.3.04h-.09c-.16.03-.31.04-.45.05h-.04c-.16.01-.32.02-.47.02-.29,0-.57-.01-.84-.03-.04,0-.09,0-.13,0-.26-.02-.51-.05-.76-.08-.04,0-.08-.01-.13-.02-.25-.04-.5-.09-.73-.14h-.03c-.24-.07-.48-.13-.71-.21h-.04c-.23-.09-.45-.17-.66-.26l-.06-.02c-.21-.09-.42-.2-.62-.3h0c-.41-.23-.79-.48-1.13-.76h0s2.48.36,2.48.36c6.06,3.51,19.92-8.74,22.72-11.46-1,1.48-1.93,3.7-1.91,3.61ZM101.31,72.55s-3-1.87-4.07-2.54l4.26.76c5,1.96,8.29,6.31,9.13,11.13l.03.16s0,.1.04.37c.36,2.68,0,5.3-1.3,8.09h0s-.02.04-.02.04c-2.15,1.9-7.35,6.47-14.41,10.82,7.79-6.23,18.25-18.69,6.34-28.82ZM121.32,83.99c-.92,1.2-1.73,2.37-2.18,3.08-6.65,5.88-17.53,14.12-23.42,17.95-8.55,5.55-17.77,8.98-29.11,8.98-9.87,0-15.42-3.72-17.56-7.82l2.81,1.53h0c2.5,2.9,5.86,4.62,13.87,4.62,2,0,3.9-.14,5.74-.4,6.67-.46,19.6-3.97,35.3-16.64-.05.07,8.72-6.52,14.55-11.29ZM97.25,70.01c16.87-3.05,23.73-12.35,24.26-20,.25-3.68-.38-6.67-4.45-9.26l-.11-2.74c6.07,2.69,8.43,7.7,8.43,11.99,0,7.68-6.41,18.22-24.29,20.84l-3.84-.83ZM5.42,59.67c1.73,2.82,6.33,8.64,22.29,8.76,8.89.07,19.13-1.81,26.68-4.81l.34-.11-6.22,3.46c-6.96,2.26-14.7,3.54-21.75,3.53-17.76-.05-26.19-7.72-25.43-15.57l4.09,4.74ZM24.81,108.64c.46,3.16,3.73,4.36,8.07,2.3,6.16-2.91,8.67-6.08,14.57-11.47.1-.09,1.81-1.63,2.05-1.58-.97,1.41-1.47,2.71-1.47,2.71-5.63,5.52-10.11,9.13-14.25,11.35-6.61,3.55-14.04,2.17-13.75-5.76l4.84.26s-.07.33-.12.83c-.05.51.05,1.35.05,1.35ZM58.9,110.11c-6.14-.77-7.58-6.44-7.57-8.79.02-6.69,4.47-11.87,10.04-14.73,3.33-1.71,6.87-2.7,10.63-2.09,0,0,.36.06.57.17.13.07.24.2.24.2h0c-.2.3-.57.52-1.1.54-9.28.37-18.68,6.86-18.68,15.94,0,2.3.87,4.49,3.36,6.02,1.06.65,1.67.84,2.57,1.06,1.06.26,1.26.21,3.22.43l-3.27,1.25ZM5.88,60.4c-1.12-1.71-1.6-3.58-1.42-5.45v-.04c.74-7.31,11.47-14.85,33.04-14.85,9.11-.02,19.68,2.17,31.81,5.31l-2.9.39c-11.14-2.9-20.77-4.42-29.12-4.41-27.08,0-36.05,12.18-27.71,19.37,0,0,.49.38.91.69l-4.61-1.02ZM88.55,53.04c-6.6,7.5-18.84,23.16-24.42,30.02l-2.42.69c.87-1.02,14.9-19.14,26.31-32.12,5.51,2.71,6.22,3.95,8.12,5.05.91.53,1.57.74,2.16.5,0,0,.3-.12.56-.35.26-.23.73.86-.62,1.4-.42.17-.85.05-.85.05-.55-.07-1.09-.3-1.53-.55-1.9-1.1-1.98-1.89-7.32-4.68M99.8,78.68c-1.21-4.99-5.49-7.23-10.76-7.23-4.79,0-5.53,1-7.42,1-1.08,0-1.91-.3-2.47-.78l-.04-.03h-.01s.02-.1.24-.24c.4-.25,1.11-.45,1.11-.45,2.23-.58,3.35-1.04,7.61-1.05,7.07-.03,11.06,2.6,12.76,5.48,0,0-.19.06-1.01,3.3ZM114.5,44.39c-1.08-1.72-3-3.13-6.43-3.13-3.72,0-10.45,1.57-17.15,9.38l-2.4.31h-.03c9.48-10.45,16.04-11.17,20.17-11.1,2.89.05,6.39,1.44,7.35,3.38-.63.19-1.16.61-1.51,1.16ZM27.92,109.38l-2.45.99c-1.26-1.76-1.04-4.95,1.62-8.68,14.65-20.6,34.71-40.45,48.54-56.87l8.49-6.16h.06c-.14,2.12-.59,4.58-3.06,8.07l-2.43,1.34.31,1.33c-2,2.26-6.03,5.37-7.24,6.19-24.14,28.64-34.19,38.08-41.62,47.51-1.94,2.46-3.63,4.83-2.34,6.16l.12.1ZM255.88,68.35c-2.65,3.17-17.57,20.85-22.84,27.62-1.43,1.83-3.06,3.92-2.11,4.91.15.15.38.24.69.28l.16.54c-2.52-.13-5.4-2.7,1.45-11.79,4.8-6.37,15.04-18.47,15.04-18.47l7.61-3.09ZM232.06,104.94c-.59,0-1.15-.04-1.68-.12l1.41-.77c4.83.27,12.42-5.01,20.69-12.21.97-.84.55-.61,1.53-1.5,0,0-.36.41-.73.92-1.38,1.48-3.48,3.99-3.58,4.08-7.38,6.21-13.42,9.6-17.63,9.6ZM258.17,101.76c-3.86-.52-5.65-4.28.94-12.33,3.23-3.95,14.64-18.23,14.64-18.23l7.51-2.86c-11.07,13.64-21.54,25.07-24.18,29.46-.76,1.27-.9,2.51.38,3.03l.7.93ZM310.58,104.94c-.53,0-1.04-.03-1.54-.08l1.79-1.26c6.41.68,15.43-5.76,17-6.79,3.57-2.35,14.39-12.14,17.39-14.47l-3.36,4.52c-3.9,3.4-7.29,6.24-10.06,8.45-8.85,6.84-15,9.63-21.23,9.63ZM307.58,93.66l-3.42-1.7c9.33-.74,18.21-3.01,26.97-10.07,6.84-5.51,6.9-11.15,3.85-12.17l2.3.43c1.35,1.15,1.68,2.38,1.68,3.89,0,6.56-12.1,15.46-31.21,19.13-.06.17-.11.33-.16.49ZM310.79,101.95c-9.21-.98-10.48-12.07,3.3-24.09,11.69-10.2,17.49-6.84,17.49-6.85l.45.9c-.37-.53-1.23-.67-2.59-.3-4.6,1.23-13.79,7.61-19.48,17.08l-5.76,3.26,3.55,1.22c-1.73,4.9-.6,6.96,1.71,7.63l1.33,1.15ZM409.98,93.66l-3.39-1.7c9.33-.74,18.18-3.01,26.93-10.07,6.84-5.51,6.9-11.15,3.85-12.17l2.3.43c1.35,1.15,1.68,2.38,1.68,3.89,0,6.56-12.1,15.46-31.21,19.13-.06.17-.11.33-.16.49ZM363.83,94.87c-8.61,6.76-13.83,10.21-18.55,10.21-2.69,0-4.9-.89-6.37-2.44l1.77.23c4.05,3.88,14.18-2.2,22.19-9.25,2.35-2.07,9.98-8.62,11.98-10.66,1.75-1.79,9.7-9.27,13.28-11.26.49-.27.47-.27.88-.4l-1.58,2.61c-6.66,5.13-18.44,16.92-23.6,20.97ZM369.41,68.19s-22.16,25.82-24.75,30.67c-.54,1-.58,1.65-.32,2.05l.35,1.21c-4.35-3.6.25-10.02,5.71-16.72,3.22-3.95,11.83-13.94,11.83-13.94l7.18-3.27ZM465.4,70.95l.53,1.15c-.21-.17-.71-.38-1.34-.3-6.21.75-22.9,17.7-30.96,23.98-5.99,4.67-13.11,9.17-20.61,9.17-2.9,0-5.32-.79-7.24-2.09l2.85.2c.53.65,2.97.91,4.42.9,7.58-.1,15.69-5.99,17.23-7.07,7.81-5.47,20.35-18.71,28.28-23.46,3.8-2.28,5.11-2.86,6.84-2.47ZM217.37,96.17c-6.91,5.47-11.08,8.77-16.27,8.77-1.21,0-2.2-.24-3.03-.55,0,0,1.69-.07,3.08-.31,1.99-.34,5.62-.83,14.62-8.25,9-7.42,14.67-12.09,14.67-12.09,0,0-1.25,1.54-2.79,3.86-4.13,3.75-10.27,8.56-10.27,8.56ZM298.21,89.88c-6.34,5.36-14.22,6.21-18.05,5.92l-.91-.92c2.79.18,11.22.45,19.42-6.7-.22.71-.35,1.11-.46,1.7ZM280.01,95.68c-8.38,5.98-16.03,9.14-22.13,9.14-.06,0-.11,0-.17,0l2.2-1.17c5.49-.37,14.46-4.7,19.35-8.88l.74.91ZM283.9,92.16c.14.02-3.15,1.2-3.15,1.2,7.88-8.27,11.53-14.49,13.09-20.64.7-2.75-.22-4.85-1.5-4.96,2.6-.24,5.1,1.32,5.1,4.56,0,3.91-5.29,11.85-13.55,19.83ZM370.83,100.94l.7.51c-3.75.3-5.14-2.84-2.81-3.41,2.92-.71,1.78-4.25,1.07-4.7,1.53.45,2.51,1.71,2.51,3.02,0,.63-.17,1.21-1.04,2.57-.64,1.01-1,1.76-.43,2.02ZM401.49,87.61l-.85,2.5c-4.11,3.42-9.36,7.62-11.06,8.72h0c-5.81,4.09-10.54,6.12-16.4,6.12-2.36,0-4.71-.34-6.32-1.2l2.41.11c4.98.91,11.19.3,19.77-6.28,0,0,.05-.04.09-.07,3.42-2.37,8.37-6.35,12.38-9.89ZM489.43,87.62c-.04.31-.15.64-.38,1.01-1.51,2.43-7.84,6.32-12.32,6.32-3.89,0-6.18-1.57-6.73-3.99l2.13,1.14c.61.94,2.2,1.48,3.67,1.64,6.15.7,11.92-5.68,11.92-5.68,1.46-1.5.7-2.13.7-2.13.95.38,1.08,1.34,1.01,1.67ZM464.86,84.09c3.91-5.11,7.63-11.9,4.55-14.42l-.58-1.34c2.08.88,3.43,2.82,3.43,5.21,0,3.32-1.96,6.92-4.39,10.46h0s-.02.02-.02.02l-9.13,7.29c2.75-3.11,5.14-5.9,6.15-7.22ZM473.36,82.97s-2.12,2.73-1.99,2.54c-5.38,4.13-11.91,10.36-18.34,16.55-.51.49-.97.89-1.48,1.38l-4.29.33c.19-.18.25-.21.49-.46l13.45-11.16h0c10.34-8.25,12.16-9.17,12.16-9.17ZM398.27,67.35h.03c-.5,2.93-4.78,3.74-4.79,3.74-.65.19-1.11.33-1.43.57h0s-.02.02-.02.02c-.04.03-.08.07-.12.11l-.02.02s-.08.09-.11.14c-.27.38-.37.98-.37,2.04,0,4.99.72,7.89.72,11.65,0,1.41-.04,4.48-.91,7.21,0,0-3.1,2.67-5.78,4.29.46-.58,1-1.35,1.53-2.24,0,0,.42-.74.62-1.14,3.72-7.27,2.02-14.14,2.17-19.34.06-2.24.17-3.68.7-4.45.69-1.41,2.6-2,3.75-2.5,2.29-1,2.75-2.52,1.83-3.71,0,0,2.81.67,2.2,3.59ZM491.64,73.12c-1.13,1.22-3.04,2.59-10.18,6.63-.57.33-1.16.73-1.74,1.17-.05-.16.07-1.29,8.27-6.88,4.57-3.12,2.45-5.56,1.36-6.23,3.09.33,4.7,2.71,2.29,5.31ZM380.26,50.9s0-.09-.02-.13c-.01-.11-.03-.22-.05-.32,0-.04-.02-.09-.02-.13-.03-.14-.06-.27-.1-.4h0c-.04-.14-.09-.27-.14-.39-.02-.04-.03-.07-.05-.11-.04-.09-.08-.17-.13-.26-.02-.04-.04-.07-.06-.11-.06-.11-.13-.21-.2-.31v-.02c-.09-.1-.17-.2-.25-.29-.03-.03-.05-.06-.08-.09-.06-.07-.13-.13-.2-.19-.03-.03-.06-.05-.09-.08-.09-.08-.18-.15-.28-.22l-.02-.02c-.1-.07-.21-.14-.32-.21-.04-.02-.07-.04-.11-.06-.08-.04-.16-.09-.25-.13-.04-.02-.08-.04-.12-.05-.11-.05-.22-.09-.34-.13h-.04s0-.01,0-.01c1.09.7,1.58,2.51.27,4.32-1.51,2.08-3.6,1.24-3.6,1.24l-3.68,3.96h0c.08.05.16.1.24.14.04.02.07.04.1.05.08.04.16.08.24.12.04.02.09.04.13.05.08.03.16.07.24.09.12.04.24.08.36.11.06.02.12.03.19.04.08.02.17.04.26.06.06.01.12.02.18.03.1.02.2.03.3.04.05,0,.11.01.16.01.16.01.32.02.48.02,3.76,0,6.99-3.32,6.99-6.17,0-.16,0-.31-.02-.46ZM411.84,100.81c-2.31-.67-3.23-2.74-1.7-7.64l-3.55-1.22,5.76-3.26c5.69-9.48,14.88-15.85,19.48-17.08,1.36-.36,2.3-.22,2.67.31l-.25-.85s-6.07-3.41-17.77,6.79c-13.78,12.01-12.47,23.7-3.26,24.68l-1.38-1.73Z"/></svg>